# xmcd
#
# Track frame offsets: 
#        150
#        6632
#        34002
#        48135
#        69542
#        92899
#        116804
#        138834
#        156877
#        177618
#        198298
#        218248
#        233385
#        259842
#        273881
#        287657
#
# Disc length: 4066 seconds
#
# Revision: 0
# Processed by: cddbd v1.5.2PL0 Copyright (c) Steve Scherf et al.
# Submitted via: ExactAudioCopy v1.0b3
#
DISCID=e50fe010
DTITLE=B. B. King - Indianola Mississippi Seeds 1970 and Friends 1974
DYEAR=1999
DGENRE=Blues
TTITLE0=Nobody Loves Me But My Mother
TTITLE1=You're Still My Woman
TTITLE2=Ask Me No Questions
TTITLE3=Until I'm Dead and Cold
TTITLE4=King's Special
TTITLE5=Ain't Gonna Worry My Life Anymore
TTITLE6=Chains and Things
TTITLE7=Go Underground
TTITLE8=Hummingbird
TTITLE9=Friends
TTITLE10=I Got Them Blues
TTITLE11=Baby I'm Yours
TTITLE12=Philadelphia
TTITLE13=Up At Sam
TTITLE14=When Everything Else Is Gone
TTITLE15=My Song
EXTD=
EXTT0=
EXTT1=
EXTT2=
EXTT3=
EXTT4=
EXTT5=
EXTT6=
EXTT7=
EXTT8=
EXTT9=
EXTT10=
EXTT11=
EXTT12=
EXTT13=
EXTT14=
EXTT15=
PLAYORDER=
